# xmcd
#
# Track frame offsets: 
#        150
#        19423
#        47126
#        68193
#        82317
#        103022
#        126173
#        158184
#        178450
#        201082
#        232318
#
# Disc length: 3601 seconds
#
# Revision: 1
# Processed by: cddbd v1.5.2PL0 Copyright (c) Steve Scherf et al.
# Submitted via: ExactAudioCopy v0.99pb5
#
DISCID=a80e0f0b
DTITLE=Eric Clapton and Friends - Blues Jams 3
DYEAR=2005
DGENRE=Blues
TTITLE0=Give Me One More Reason (with T. Chapman 1999)
TTITLE1=Don't Think Twice (Bob Dylan's Tribute Concert 1993)
TTITLE2=Crossroads (Cream Reunion 1993)
TTITLE3=How Long (with Dr.John 1996)
TTITLE4=Sweet Home Chicago (with Buddy Guy 1987)
TTITLE5=Long Distance Call (with Stan Webb's Chicken Shack 1986)
TTITLE6=Have You Ever Loved The Woman (Japan Tour 1999)
TTITLE7=Hoochie Coochie Man (with Buddy Guy 2002)
TTITLE8=None Of Us As Tree (with R.Charles 1993)
TTITLE9=Rock Me Baby (with Bo.Raitt 1998)
TTITLE10=Blues Jam (with R.Cray 1997)
EXTD=YEAR: 2005
EXTT0=
EXTT1=
EXTT2=
EXTT3=
EXTT4=
EXTT5=
EXTT6=
EXTT7=
EXTT8=
EXTT9=
EXTT10=
PLAYORDER=
